# xmcd
#
# Track frame offsets:
#	150
#	14913
#	30951
#	44401
#	58246
#	71731
#	85820
#	100406
#	114878
#	128469
#	142183
#	155759
#	170274
#	184476
#	199392
#	214109
#	228636
#	241747
#	255542
#	268531
#
# Disc length: 3770 seconds
#
# Revision: 0
# Processed by: cddbd v1.5.2PL0 Copyright (c) Steve Scherf et al.
# Submitted via: EasyCDDAExtractor 15.3.0.1
#
DISCID=260eb814
DTITLE=Barbecue Bob - Chocolate To The Bone
DYEAR=1900
DGENRE=Blues
TTITLE0=Motherless Chile Blues
TTITLE1=Spider And The Fly
TTITLE2=Yo Yo Blues
TTITLE3=Mississippi Heavy Water Blues
TTITLE4=California Blues
TTITLE5=She's Coming Back Some Cold Rainy Day
TTITLE6=Barbecue Blues
TTITLE7=When The Saints Go Marching In
TTITLE8=Ease It To Me Blues
TTITLE9=Poor Boy A Long Ways From Home
TTITLE10=Diddle-Da-Diddle
TTITLE11=Going Up The Country
TTITLE12=Atlanta Moan
TTITLE13=Good Time Rounder
TTITLE14=It's Just Too Bad
TTITLE15=Twistin' Your Stuff (Unissued)
TTITLE16=Chocolate To The Bone
TTITLE17=Black Skunk Blues
TTITLE18=Jacksonville Blues
TTITLE19=She Shook Her Gin (Unissued)
EXTD=
EXTT0=
EXTT1=
EXTT2=
EXTT3=
EXTT4=
EXTT5=
EXTT6=
EXTT7=
EXTT8=
EXTT9=
EXTT10=
EXTT11=
EXTT12=
EXTT13=
EXTT14=
EXTT15=
EXTT16=
EXTT17=
EXTT18=
EXTT19=
PLAYORDER=
